<svg width="269" height="70" viewBox="0 0 269 70" fill="none" xmlns="http://www.w3.org/2000/svg">
<path d="M22.7607 0.25C30.3925 0.250264 36.5791 6.43756 36.5791 14.0693C36.5794 21.7009 42.7659 27.8874 50.3975 27.8877H53.04C62.1307 27.888 69.5 35.2579 69.5 44.3486V52.9814C69.4997 62.2423 61.9923 69.7497 52.7314 69.75H45.0537C40.0329 69.75 35.9622 65.6799 35.9619 60.6592C35.9619 55.6382 31.8911 51.5674 26.8701 51.5674H17.9814C8.051 51.5674 0.000263559 43.5173 0 33.5869V18.5391C0.000263214 8.43825 8.18916 0.25 18.29 0.25H22.7607ZM26.418 56.3379C29.336 56.3379 31.702 58.7031 31.7021 61.6211C31.7021 64.5392 29.336 66.9053 26.418 66.9053H22.3535C19.4356 66.9051 17.0703 64.5391 17.0703 61.6211C17.0704 58.7032 19.4357 56.338 22.3535 56.3379H26.418ZM57.7139 10.0039C61.7541 10.0041 65.0293 13.2801 65.0293 17.3203C65.0292 21.3605 61.754 24.6355 57.7139 24.6357H52.8359C48.7957 24.6356 45.5206 21.3605 45.5205 17.3203C45.5205 13.28 48.7957 10.0041 52.8359 10.0039H57.7139Z" fill="url(#paint0_linear_93_73)"/>
<path d="M83.8588 24.618H108.659V30.346H99.1868V46.25H93.3628V30.346H83.8588V24.618ZM116.736 38.57V46.25H110.944V25.962C110.944 25.066 111.424 24.618 112.384 24.618H127.744C130.4 24.618 132.096 25.418 133.28 26.666C134.336 27.786 135.008 29.29 135.008 30.922C135.008 32.65 134.496 34.282 132.96 35.402C134.4 36.266 135.04 37.418 135.04 39.882V44.202C135.04 45.13 135.072 45.642 135.136 46.25H129.28C129.216 45.77 129.184 45.29 129.184 44.81V40.49C129.184 39.114 128.512 38.57 126.816 38.57H116.736ZM116.736 33.642H126.976C127.776 33.642 128.256 33.354 128.608 32.938C128.864 32.618 129.024 32.234 129.024 31.818C129.024 31.37 128.864 30.922 128.544 30.602C128.224 30.25 127.712 30.026 126.976 30.026H117.216C116.896 30.026 116.736 30.218 116.736 30.506V33.642ZM155.033 46.25H145.337C139.897 46.25 137.753 44.17 137.753 39.338V24.618H143.577V38.698C143.577 40.042 144.217 40.714 145.657 40.714H154.649C156.089 40.714 156.793 40.074 156.793 38.698V24.618H162.617V39.338C162.617 44.17 160.473 46.25 155.033 46.25ZM167.166 24.618H182.622C184.894 24.618 186.686 25.322 187.934 26.666C188.926 27.722 189.566 29.162 189.566 30.986C189.566 32.842 188.798 34.442 187.39 35.37C188.99 36.202 189.79 38.09 189.79 40.074C189.79 41.61 189.214 43.018 188.286 44.106C187.166 45.418 185.502 46.25 182.942 46.25H167.166C166.206 46.25 165.726 45.802 165.726 44.874V25.962C165.726 25.066 166.206 24.618 167.166 24.618ZM171.518 37.354V40.522C171.518 40.842 171.646 41.002 171.966 41.002H181.566C182.43 41.002 182.942 40.746 183.262 40.362C183.55 40.01 183.71 39.594 183.71 39.146C183.71 38.698 183.518 38.282 183.23 37.962C182.878 37.578 182.43 37.354 181.566 37.354H171.518ZM171.518 33.482H181.598C182.398 33.482 182.878 33.226 183.198 32.81C183.422 32.522 183.582 32.138 183.582 31.754C183.582 31.37 183.422 30.986 183.198 30.698C182.878 30.314 182.398 30.058 181.598 30.058H171.966C171.646 30.058 171.518 30.218 171.518 30.538V33.482ZM195.078 24.618H214.758V30.346H198.31C197.958 30.346 197.798 30.538 197.798 30.89V33.354H214.662V37.514H197.798V40.138C197.798 40.522 197.958 40.714 198.31 40.714H214.758V46.25H195.046C193.03 46.25 192.006 45.258 192.006 43.242V27.53C192.006 25.578 193.03 24.618 195.078 24.618ZM223.267 38.57V46.25H217.475V25.962C217.475 25.066 217.955 24.618 218.915 24.618H234.275C236.931 24.618 238.627 25.418 239.811 26.666C240.867 27.786 241.539 29.29 241.539 30.922C241.539 32.65 241.027 34.282 239.491 35.402C240.931 36.266 241.571 37.418 241.571 39.882V44.202C241.571 45.13 241.603 45.642 241.667 46.25H235.811C235.747 45.77 235.715 45.29 235.715 44.81V40.49C235.715 39.114 235.043 38.57 233.347 38.57H223.267ZM223.267 33.642H233.507C234.307 33.642 234.787 33.354 235.139 32.938C235.395 32.618 235.555 32.234 235.555 31.818C235.555 31.37 235.395 30.922 235.075 30.602C234.755 30.25 234.243 30.026 233.507 30.026H223.747C223.427 30.026 223.267 30.218 223.267 30.506V33.642ZM267.037 24.618V30.346H251.485C250.781 30.346 250.397 30.506 250.141 30.762C249.853 31.05 249.693 31.434 249.693 31.882C249.693 32.362 249.917 32.778 250.237 33.034C250.493 33.258 250.812 33.354 251.485 33.354H260.989C263.421 33.354 265.053 34.122 266.205 35.306C267.357 36.49 268.061 38.09 268.061 39.786C268.061 41.354 267.453 42.858 266.461 44.01C265.277 45.386 263.549 46.25 260.989 46.25H244.221V40.714H259.965C260.861 40.714 261.309 40.522 261.597 40.17C261.821 39.914 261.949 39.562 261.949 39.178C261.949 38.73 261.789 38.314 261.501 38.026C261.213 37.706 260.797 37.546 259.965 37.546H251.165C248.285 37.546 246.621 36.778 245.469 35.594C244.317 34.41 243.645 32.842 243.645 31.082C243.645 29.354 244.349 27.754 245.501 26.57C246.653 25.386 248.285 24.618 251.165 24.618H267.037Z" fill="#2D2D2D"/>
<defs>
<linearGradient id="paint0_linear_93_73" x1="34.75" y1="0.25" x2="34.75" y2="69.75" gradientUnits="userSpaceOnUse">
<stop stop-color="#7149C6"/>
<stop offset="1" stop-color="#FF0025"/>
</linearGradient>
</defs>
</svg>
